<svg xmlns="http://www.w3.org/2000/svg" viewBox="0 0 96 96" fill="none">
  <defs>
    <radialGradient id="friends-enamel" cx="0" cy="0" r="1" gradientTransform="translate(39 29) rotate(62) scale(65)" gradientUnits="userSpaceOnUse">
      <stop stop-color="#305A50"/>
      <stop offset="1" stop-color="#1D2B28"/>
    </radialGradient>
    <linearGradient id="friends-edge" x1="24" y1="10" x2="68" y2="86" gradientUnits="userSpaceOnUse">
      <stop stop-color="#C4F9DF"/>
      <stop offset=".48" stop-color="#65BBA7"/>
      <stop offset="1" stop-color="#426E63"/>
    </linearGradient>
    <linearGradient id="friends-stars" x1="35" y1="20" x2="63" y2="76" gradientUnits="userSpaceOnUse">
      <stop stop-color="#E2FFDE"/>
      <stop offset=".48" stop-color="#A4F2CE"/>
      <stop offset="1" stop-color="#68CAB5"/>
    </linearGradient>
  </defs>
  <circle cx="48" cy="48" r="42" fill="url(#friends-enamel)" stroke="url(#friends-edge)" stroke-width="2"/>
  <circle cx="48" cy="48" r="36.5" stroke="#B4EFCE" stroke-opacity=".16"/>
  <path d="M23 25a33 33 0 0 1 34-8" stroke="#DDFFEC" stroke-opacity=".23" stroke-width="2" stroke-linecap="round"/>
  <path d="m48 25 24 18-9 28H33l-9-28 24-18Z" stroke="#87DFBE" stroke-opacity=".55" stroke-width="2" stroke-linejoin="round"/>
  <path d="m48 25 15 46M24 43l39 28M72 43 33 71" stroke="#87DFBE" stroke-opacity=".15" stroke-width="1.5" stroke-linecap="round"/>
  <g fill="#284A40" stroke="#9CE8C9" stroke-opacity=".23">
    <circle cx="48" cy="25" r="11"/>
    <circle cx="72" cy="43" r="11"/>
    <circle cx="63" cy="71" r="11"/>
    <circle cx="33" cy="71" r="11"/>
    <circle cx="24" cy="43" r="11"/>
  </g>
  <g fill="url(#friends-stars)">
    <circle cx="48" cy="22" r="4"/>
    <path d="M41.5 30a6.5 6.5 0 0 1 13 0v1a9 9 0 0 1-13 0v-1Z"/>
    <circle cx="72" cy="40" r="4"/>
    <path d="M65.5 48a6.5 6.5 0 0 1 13 0v1a9 9 0 0 1-13 0v-1Z"/>
    <circle cx="63" cy="68" r="4"/>
    <path d="M56.5 76a6.5 6.5 0 0 1 13 0v1a9 9 0 0 1-13 0v-1Z"/>
    <circle cx="33" cy="68" r="4"/>
    <path d="M26.5 76a6.5 6.5 0 0 1 13 0v1a9 9 0 0 1-13 0v-1Z"/>
    <circle cx="24" cy="40" r="4"/>
    <path d="M17.5 48a6.5 6.5 0 0 1 13 0v1a9 9 0 0 1-13 0v-1Z"/>
  </g>
  <path d="m48 41 2.1 5.9L56 49l-5.9 2.1L48 57l-2.1-5.9L40 49l5.9-2.1L48 41Z" fill="#E3FBCB"/>
</svg>
