<svg xmlns="http://www.w3.org/2000/svg" viewBox="0 0 96 96" fill="none" color="#f0f3e9" aria-hidden="true">
  <defs>
    <radialGradient id="linked_email-enamel" cx=".4" cy=".3" r=".75">
      <stop stop-color="#365C4C"/>
      <stop offset="1" stop-color="#202B20"/>
    </radialGradient>
    <linearGradient id="linked_email-edge" x1="0" y1="0" x2=".7" y2="1">
      <stop stop-color="#DEF9CE"/>
      <stop offset=".48" stop-color="#89B699"/>
      <stop offset="1" stop-color="#496844"/>
    </linearGradient>
  </defs>
  <circle cx="48" cy="48" r="42" fill="url(#linked_email-enamel)" stroke="url(#linked_email-edge)" stroke-width="2"/>
  <circle cx="48" cy="48" r="36.5" stroke="#DBFCA5" stroke-opacity=".15"/>
  <path d="M23 25a33 33 0 0 1 34-8" stroke="#F1FFD7" stroke-opacity=".24" stroke-width="2" stroke-linecap="round"/>
  <svg xmlns="http://www.w3.org/2000/svg" width="46" height="46" viewBox="0 0 24 24" fill="none" stroke="#0C170F" stroke-width="1.8" stroke-linecap="round" stroke-linejoin="round" class="lucide lucide-mail-check" aria-hidden="true" x="25" y="27" opacity=".35">
    <path d="M22 13V6a2 2 0 0 0-2-2H4a2 2 0 0 0-2 2v12c0 1.1.9 2 2 2h8"/>
    <path d="m22 7-8.97 5.7a1.94 1.94 0 0 1-2.06 0L2 7"/>
    <path d="m16 19 2 2 4-4"/>
  </svg>
  <svg xmlns="http://www.w3.org/2000/svg" width="46" height="46" viewBox="0 0 24 24" fill="none" stroke="url(#linked_email-edge)" stroke-width="1.8" stroke-linecap="round" stroke-linejoin="round" class="lucide lucide-mail-check" aria-hidden="true" x="25" y="25">
    <path d="M22 13V6a2 2 0 0 0-2-2H4a2 2 0 0 0-2 2v12c0 1.1.9 2 2 2h8"/>
    <path d="m22 7-8.97 5.7a1.94 1.94 0 0 1-2.06 0L2 7"/>
    <path d="m16 19 2 2 4-4"/>
  </svg>
  <circle cx="24" cy="27" r="2" fill="#EDFCCA"/>
  <circle cx="72" cy="69" r="2" fill="#BCDF8C"/>
</svg>
