<svg xmlns="http://www.w3.org/2000/svg" viewBox="0 0 96 96" fill="none" color="#f0f3e9" aria-hidden="true">
  <defs>
    <radialGradient id="ten_thousand_series-enamel" cx=".4" cy=".3" r=".75">
      <stop stop-color="#645234"/>
      <stop offset="1" stop-color="#202B20"/>
    </radialGradient>
    <linearGradient id="ten_thousand_series-edge" x1="0" y1="0" x2=".7" y2="1">
      <stop stop-color="#F6E4AB"/>
      <stop offset=".48" stop-color="#CBA660"/>
      <stop offset="1" stop-color="#496844"/>
    </linearGradient>
  </defs>
  <circle cx="48" cy="48" r="42" fill="url(#ten_thousand_series-enamel)" stroke="url(#ten_thousand_series-edge)" stroke-width="2"/>
  <circle cx="48" cy="48" r="36.5" stroke="#DBFCA5" stroke-opacity=".15"/>
  <path d="M23 25a33 33 0 0 1 34-8" stroke="#F1FFD7" stroke-opacity=".24" stroke-width="2" stroke-linecap="round"/>
  <svg xmlns="http://www.w3.org/2000/svg" width="46" height="46" viewBox="0 0 24 24" fill="none" stroke="#0C170F" stroke-width="1.8" stroke-linecap="round" stroke-linejoin="round" class="lucide lucide-trophy" aria-hidden="true" x="25" y="27" opacity=".35">
    <path d="M10 14.66V17a1 1 0 0 1-1 1 2 2 0 0 0-2 2v2"/>
    <path d="M14 14.66V17a1 1 0 0 0 1 1 2 2 0 0 1 2 2v2"/>
    <path d="M17.916 10H19.5A2.5 2.5 0 0 0 22 7.5V5a1 1 0 0 0-1-1h-3"/>
    <path d="M4 22h16"/>
    <path d="M6 9a6 6 0 0 0 12 0V3a1 1 0 0 0-1-1H7a1 1 0 0 0-1 1z"/>
    <path d="M6.084 10H4.5A2.5 2.5 0 0 1 2 7.5V5a1 1 0 0 1 1-1h3"/>
  </svg>
  <svg xmlns="http://www.w3.org/2000/svg" width="46" height="46" viewBox="0 0 24 24" fill="none" stroke="url(#ten_thousand_series-edge)" stroke-width="1.8" stroke-linecap="round" stroke-linejoin="round" class="lucide lucide-trophy" aria-hidden="true" x="25" y="25">
    <path d="M10 14.66V17a1 1 0 0 1-1 1 2 2 0 0 0-2 2v2"/>
    <path d="M14 14.66V17a1 1 0 0 0 1 1 2 2 0 0 1 2 2v2"/>
    <path d="M17.916 10H19.5A2.5 2.5 0 0 0 22 7.5V5a1 1 0 0 0-1-1h-3"/>
    <path d="M4 22h16"/>
    <path d="M6 9a6 6 0 0 0 12 0V3a1 1 0 0 0-1-1H7a1 1 0 0 0-1 1z"/>
    <path d="M6.084 10H4.5A2.5 2.5 0 0 1 2 7.5V5a1 1 0 0 1 1-1h3"/>
  </svg>
  <circle cx="24" cy="27" r="2" fill="#EDFCCA"/>
  <circle cx="72" cy="69" r="2" fill="#BCDF8C"/>
</svg>
